<svg xmlns="http://www.w3.org/2000/svg" width="760" height="420" viewBox="0 0 760 420" fill="none" role="img" aria-labelledby="title"><title id="title">Jumat Agung — Teduh dalam harapan. Ilustrasi orisinal Azuralimit.</title><defs><pattern id="ink-grain" width="21" height="21" patternUnits="userSpaceOnUse"><circle cx="3" cy="5" r="0.7" fill="#352323" /><circle cx="14" cy="17" r="0.55" fill="#352323" /></pattern></defs><rect x="0" y="0" width="760" height="420" fill="#F9F6EE" /><rect x="0" y="0" width="760" height="420" fill="url(#ink-grain)" opacity=".1"/><path d="M28 53V28H53M707 28H732V53M28 367V392H53M707 392H732V367" stroke="#352323" stroke-width="1" opacity=".3"/><circle cx="380" cy="206" r="151" fill="#D2B48C" opacity=".15"/><polygon points="163.00,111.00 166.11,117.89 173.00,121.00 166.11,124.11 163.00,131.00 159.89,124.11 153.00,121.00 159.89,117.89" fill="#781C2E"/><polygon points="584.00,84.00 586.49,89.51 592.00,92.00 586.49,94.49 584.00,100.00 581.51,94.49 576.00,92.00 581.51,89.51" fill="#781C2E"/><polygon points="548.00,296.00 549.87,300.13 554.00,302.00 549.87,303.87 548.00,308.00 546.13,303.87 542.00,302.00 546.13,300.13" fill="#781C2E"/><g transform="translate(379 230) rotate(0) scale(1.04)"><path d="M-98 114V-26Q-92-83 0-124Q92-83 98-26V114" fill="none" stroke="#D2B48C" stroke-width="4"/><path d="M-82 114V-24Q-73-73 0-106Q73-73 82-24V114" fill="none" stroke="#D2B48C" stroke-width="1.5" opacity=".5"/></g><rect x="364" y="101" width="26" height="199" fill="#781C2E" /><rect x="315" y="144" width="123" height="25" fill="#781C2E" /><g transform="translate(251 259) rotate(-28) scale(0.58)"><path d="M0 62Q-8 4 26-64" stroke="#00594E" stroke-width="3" fill="none"/><path d="M5 -20Q-55 -50-19 -66Q7 -565 -20Z" fill="#00594E"/><path d="M7 -33Q56 -6149 -81Q21 -807 -33Z" fill="#00594E"/><path d="M3 6Q-55 -24-19 -40Q7 -303 6Z" fill="#00594E"/><path d="M5 -7Q56 -3549 -55Q21 -545 -7Z" fill="#00594E"/><path d="M1 32Q-55 2-19 -14Q7 -41 32Z" fill="#00594E"/><path d="M3 19Q56 -949 -29Q21 -283 19Z" fill="#00594E"/><path d="M-1 58Q-55 28-19 12Q7 22-1 58Z" fill="#00594E"/><path d="M1 45Q56 1749 -3Q21 -21 45Z" fill="#00594E"/></g><g transform="translate(519 277) rotate(31) scale(0.48)"><path d="M0 62Q-8 4 26-64" stroke="#00594E" stroke-width="3" fill="none"/><path d="M5 -20Q-55 -50-19 -66Q7 -565 -20Z" fill="#00594E"/><path d="M7 -33Q56 -6149 -81Q21 -807 -33Z" fill="#00594E"/><path d="M3 6Q-55 -24-19 -40Q7 -303 6Z" fill="#00594E"/><path d="M5 -7Q56 -3549 -55Q21 -545 -7Z" fill="#00594E"/><path d="M1 32Q-55 2-19 -14Q7 -41 32Z" fill="#00594E"/><path d="M3 19Q56 -949 -29Q21 -283 19Z" fill="#00594E"/><path d="M-1 58Q-55 28-19 12Q7 22-1 58Z" fill="#00594E"/><path d="M1 45Q56 1749 -3Q21 -21 45Z" fill="#00594E"/></g><circle cx="666" cy="72" r="33" fill="none" stroke="#352323" stroke-width="1.5" stroke-dasharray="3 4" opacity=".32"/><path d="M612 87L716 87" fill="none" stroke="#352323" stroke-width="1" stroke-linecap="round" opacity=".2"/><path d="M617 95L721 95" fill="none" stroke="#352323" stroke-width="1" stroke-linecap="round" opacity=".2"/></svg>
