<svg xmlns="http://www.w3.org/2000/svg" width="240" height="300" viewBox="0 0 240 300" fill="none" role="img" aria-labelledby="title"><title id="title">Ornamen Hari Kebangkitan Nasional — Tunas · matahari · pita</title><g transform="translate(120 136) rotate(0) scale(0.88)"><path d="M0 62Q-8 4 26-64" stroke="#00594E" stroke-width="3" fill="none"/><path d="M5 -20Q-55 -50-19 -66Q7 -565 -20Z" fill="#00594E"/><path d="M7 -33Q56 -6149 -81Q21 -807 -33Z" fill="#00594E"/><path d="M3 6Q-55 -24-19 -40Q7 -303 6Z" fill="#00594E"/><path d="M5 -7Q56 -3549 -55Q21 -545 -7Z" fill="#00594E"/><path d="M1 32Q-55 2-19 -14Q7 -41 32Z" fill="#00594E"/><path d="M3 19Q56 -949 -29Q21 -283 19Z" fill="#00594E"/><path d="M-1 58Q-55 28-19 12Q7 22-1 58Z" fill="#00594E"/><path d="M1 45Q56 1749 -3Q21 -21 45Z" fill="#00594E"/></g></svg>
