<svg xmlns="http://www.w3.org/2000/svg" width="760" height="420" viewBox="0 0 760 420" fill="none" role="img" aria-labelledby="title"><title id="title">Hari Olahraga Nasional — Bergerak lebih jauh. Ilustrasi orisinal Azuralimit.</title><defs><pattern id="ink-grain" width="21" height="21" patternUnits="userSpaceOnUse"><circle cx="3" cy="5" r="0.7" fill="#E9F5FF" /><circle cx="14" cy="17" r="0.55" fill="#E9F5FF" /></pattern></defs><rect x="0" y="0" width="760" height="420" fill="#002147" /><rect x="0" y="0" width="760" height="420" fill="url(#ink-grain)" opacity=".1"/><path d="M28 53V28H53M707 28H732V53M28 367V392H53M707 392H732V367" stroke="#E9F5FF" stroke-width="1" opacity=".3"/><circle cx="380" cy="206" r="151" fill="#C47623" opacity=".15"/><polygon points="163.00,111.00 166.11,117.89 173.00,121.00 166.11,124.11 163.00,131.00 159.89,124.11 153.00,121.00 159.89,117.89" fill="#D2B48C"/><polygon points="584.00,84.00 586.49,89.51 592.00,92.00 586.49,94.49 584.00,100.00 581.51,94.49 576.00,92.00 581.51,89.51" fill="#D2B48C"/><polygon points="548.00,296.00 549.87,300.13 554.00,302.00 549.87,303.87 548.00,308.00 546.13,303.87 542.00,302.00 546.13,300.13" fill="#D2B48C"/><rect x="158" y="87" width="444" height="254" rx="118" fill="none" stroke="#D2B48C" stroke-width="2" opacity=".4"/><rect x="176" y="105" width="408" height="218" rx="100" fill="none" stroke="#D2B48C" stroke-width="2" opacity=".4"/><rect x="194" y="123" width="372" height="182" rx="82" fill="none" stroke="#D2B48C" stroke-width="2" opacity=".4"/><rect x="212" y="141" width="336" height="146" rx="64" fill="none" stroke="#D2B48C" stroke-width="2" opacity=".4"/><g transform="translate(381 200) rotate(0) scale(1.3)"><path d="M-48-100H-5L20-16H-12ZM8-100H50L18-16H-11Z" fill="#781C2E"/><circle cx="0" cy="18" r="57" fill="#D2B48C" /><circle cx="0" cy="18" r="46" fill="none" stroke="#C47623" stroke-width="3"/><polygon points="0.00,-12.00 7.76,7.32 28.53,8.73 12.55,22.08 17.63,42.27 0.00,31.20 -17.63,42.27 -12.55,22.08 -28.53,8.73 -7.76,7.32" fill="#C47623"/></g><g transform="translate(217 262) rotate(-27) scale(0.43)"><path d="M0 62Q-8 4 26-64" stroke="#FFF6E4" stroke-width="3" fill="none"/><path d="M5 -20Q-55 -50-19 -66Q7 -565 -20Z" fill="#FFF6E4"/><path d="M7 -33Q56 -6149 -81Q21 -807 -33Z" fill="#FFF6E4"/><path d="M3 6Q-55 -24-19 -40Q7 -303 6Z" fill="#FFF6E4"/><path d="M5 -7Q56 -3549 -55Q21 -545 -7Z" fill="#FFF6E4"/><path d="M1 32Q-55 2-19 -14Q7 -41 32Z" fill="#FFF6E4"/><path d="M3 19Q56 -949 -29Q21 -283 19Z" fill="#FFF6E4"/><path d="M-1 58Q-55 28-19 12Q7 22-1 58Z" fill="#FFF6E4"/><path d="M1 45Q56 1749 -3Q21 -21 45Z" fill="#FFF6E4"/></g><circle cx="666" cy="72" r="33" fill="none" stroke="#E9F5FF" stroke-width="1.5" stroke-dasharray="3 4" opacity=".32"/><path d="M612 87L716 87" fill="none" stroke="#E9F5FF" stroke-width="1" stroke-linecap="round" opacity=".2"/><path d="M617 95L721 95" fill="none" stroke="#E9F5FF" stroke-width="1" stroke-linecap="round" opacity=".2"/></svg>
