<svg xmlns="http://www.w3.org/2000/svg" width="240" height="300" viewBox="0 0 240 300" fill="none" role="img" aria-labelledby="title"><title id="title">Ornamen Paskah — Lili · fajar · dedaunan</title><g transform="translate(120 136) rotate(0) scale(0.88)"><path d="M0 99V-18" stroke="#00594E" stroke-width="5"/><path d="M0 71C-52 61-80 4-30 19Q-6 25 0 71M0 92C51 67 85 22 44 33Q9 46 0 92" fill="#00594E"/><path d="M0-10C-20-86-87-63-60-29Q-37-2 0-10C-14-102 39-105 42-52Q42-27 0-10C55-64 107-37 72-9Q44 15 0-10Z" fill="#FFF6E4" stroke="#D2B48C" stroke-width="2"/><path d="M-4-9L-16-44M0-7L21-41M0-5L44-20" stroke="#C47623" stroke-width="3"/></g></svg>
