<svg xmlns="http://www.w3.org/2000/svg" width="760" height="420" viewBox="0 0 760 420" fill="none" role="img" aria-labelledby="title"><title id="title">Ramadan — Senja menunggu. Ilustrasi orisinal Azuralimit.</title><defs><pattern id="ink-grain" width="21" height="21" patternUnits="userSpaceOnUse"><circle cx="3" cy="5" r="0.7" fill="#FFF6E4" /><circle cx="14" cy="17" r="0.55" fill="#FFF6E4" /></pattern></defs><rect x="0" y="0" width="760" height="420" fill="#00594E" /><rect x="0" y="0" width="760" height="420" fill="url(#ink-grain)" opacity=".1"/><path d="M28 53V28H53M707 28H732V53M28 367V392H53M707 392H732V367" stroke="#FFF6E4" stroke-width="1" opacity=".3"/><circle cx="380" cy="206" r="151" fill="#002147" opacity=".15"/><polygon points="163.00,111.00 166.11,117.89 173.00,121.00 166.11,124.11 163.00,131.00 159.89,124.11 153.00,121.00 159.89,117.89" fill="#D2B48C"/><polygon points="584.00,84.00 586.49,89.51 592.00,92.00 586.49,94.49 584.00,100.00 581.51,94.49 576.00,92.00 581.51,89.51" fill="#D2B48C"/><polygon points="548.00,296.00 549.87,300.13 554.00,302.00 549.87,303.87 548.00,308.00 546.13,303.87 542.00,302.00 546.13,300.13" fill="#D2B48C"/><g transform="translate(267 169) rotate(0) scale(1.35)"><path d="M28-64C-38-43-40 43 28 64C-67 67-91-48-18-70C-4-74 13-70 28-64Z" fill="#D2B48C"/></g><g transform="translate(428 214) rotate(0) scale(1.1)"><path d="M0 -109L0 -66" fill="none" stroke="#D2B48C" stroke-width="2" stroke-linecap="round" /><path d="M-36-38L0-72 36-38 47 44 0 69-47 44Z" fill="#00594E" stroke="#D2B48C" stroke-width="3"/><path d="M-22-26H22L28 37 0 54-28 37Z" fill="#D2B48C"/><path d="M-8-21V40M8-21V40" stroke="#00594E" stroke-width="4"/><rect x="-42" y="-43" width="84" height="10" fill="#C47623" /><rect x="-43" y="41" width="86" height="9" fill="#C47623" /></g><g transform="translate(563 158) rotate(0) scale(0.57)"><path d="M0 -109L0 -66" fill="none" stroke="#D2B48C" stroke-width="2" stroke-linecap="round" /><path d="M-36-38L0-72 36-38 47 44 0 69-47 44Z" fill="#00594E" stroke="#D2B48C" stroke-width="3"/><path d="M-22-26H22L28 37 0 54-28 37Z" fill="#D2B48C"/><path d="M-8-21V40M8-21V40" stroke="#00594E" stroke-width="4"/><rect x="-42" y="-43" width="84" height="10" fill="#C47623" /><rect x="-43" y="41" width="86" height="9" fill="#C47623" /></g><g transform="translate(409 229) rotate(0) scale(1.12)"><path d="M-98 114V-26Q-92-83 0-124Q92-83 98-26V114" fill="none" stroke="#D2B48C" stroke-width="4"/><path d="M-82 114V-24Q-73-73 0-106Q73-73 82-24V114" fill="none" stroke="#D2B48C" stroke-width="1.5" opacity=".5"/></g><circle cx="666" cy="72" r="33" fill="none" stroke="#FFF6E4" stroke-width="1.5" stroke-dasharray="3 4" opacity=".32"/><path d="M612 87L716 87" fill="none" stroke="#FFF6E4" stroke-width="1" stroke-linecap="round" opacity=".2"/><path d="M617 95L721 95" fill="none" stroke="#FFF6E4" stroke-width="1" stroke-linecap="round" opacity=".2"/></svg>
