<svg xmlns="http://www.w3.org/2000/svg" width="760" height="420" viewBox="0 0 760 420" fill="none" role="img" aria-labelledby="title"><title id="title">Hari Anak Nasional — Langit untuk bermain. Ilustrasi orisinal Azuralimit.</title><defs><pattern id="ink-grain" width="21" height="21" patternUnits="userSpaceOnUse"><circle cx="3" cy="5" r="0.7" fill="#002147" /><circle cx="14" cy="17" r="0.55" fill="#002147" /></pattern></defs><rect x="0" y="0" width="760" height="420" fill="#E9F5FF" /><rect x="0" y="0" width="760" height="420" fill="url(#ink-grain)" opacity=".1"/><path d="M28 53V28H53M707 28H732V53M28 367V392H53M707 392H732V367" stroke="#002147" stroke-width="1" opacity=".3"/><circle cx="380" cy="206" r="151" fill="#C47623" opacity=".15"/><polygon points="163.00,111.00 166.11,117.89 173.00,121.00 166.11,124.11 163.00,131.00 159.89,124.11 153.00,121.00 159.89,117.89" fill="#124D95"/><polygon points="584.00,84.00 586.49,89.51 592.00,92.00 586.49,94.49 584.00,100.00 581.51,94.49 576.00,92.00 581.51,89.51" fill="#124D95"/><polygon points="548.00,296.00 549.87,300.13 554.00,302.00 549.87,303.87 548.00,308.00 546.13,303.87 542.00,302.00 546.13,300.13" fill="#124D95"/><g transform="translate(357 176) rotate(13) scale(1.1)"><path d="M0-79L55-13 0 72-55-13Z" fill="#FFF6E4" stroke="#002147" stroke-width="3"/><path d="M0-79L55-13H0ZM0-13V72L-55-13Z" fill="#781C2E"/><path d="M0 72Q-55 114 0 131Q40 152 0 180" fill="none" stroke="#002147" stroke-width="2.5"/><path d="M-16 115L-41 106-38 129ZM1 149L25 140 22 163Z" fill="#C47623"/></g><g transform="translate(513 177) rotate(-14) scale(0.58)"><path d="M0-79L55-13 0 72-55-13Z" fill="#FFF6E4" stroke="#002147" stroke-width="3"/><path d="M0-79L55-13H0ZM0-13V72L-55-13Z" fill="#781C2E"/><path d="M0 72Q-55 114 0 131Q40 152 0 180" fill="none" stroke="#002147" stroke-width="2.5"/><path d="M-16 115L-41 106-38 129ZM1 149L25 140 22 163Z" fill="#C47623"/></g><g transform="translate(186 193) rotate(0) scale(0.75)"><path d="M-70 18C-87-12-57-36-34-25C-25-62 24-66 43-27C68-33 93-11 76 18Z" fill="#FFF6E4"/></g><g transform="translate(540 95) rotate(0) scale(0.62)"><path d="M-70 18C-87-12-57-36-34-25C-25-62 24-66 43-27C68-33 93-11 76 18Z" fill="#FFF6E4"/></g><polygon points="201.00,296.00 206.29,307.71 218.00,313.00 206.29,318.29 201.00,330.00 195.71,318.29 184.00,313.00 195.71,307.71" fill="#C47623"/><circle cx="666" cy="72" r="33" fill="none" stroke="#002147" stroke-width="1.5" stroke-dasharray="3 4" opacity=".32"/><path d="M612 87L716 87" fill="none" stroke="#002147" stroke-width="1" stroke-linecap="round" opacity=".2"/><path d="M617 95L721 95" fill="none" stroke="#002147" stroke-width="1" stroke-linecap="round" opacity=".2"/></svg>
