<svg xmlns="http://www.w3.org/2000/svg" width="760" height="420" viewBox="0 0 760 420" fill="none" role="img" aria-labelledby="title"><title id="title">Hari Buruh — Karya dari banyak tangan. Ilustrasi orisinal Azuralimit.</title><defs><pattern id="ink-grain" width="21" height="21" patternUnits="userSpaceOnUse"><circle cx="3" cy="5" r="0.7" fill="#FFF6E4" /><circle cx="14" cy="17" r="0.55" fill="#FFF6E4" /></pattern></defs><rect x="0" y="0" width="760" height="420" fill="#352323" /><rect x="0" y="0" width="760" height="420" fill="url(#ink-grain)" opacity=".1"/><path d="M28 53V28H53M707 28H732V53M28 367V392H53M707 392H732V367" stroke="#FFF6E4" stroke-width="1" opacity=".3"/><circle cx="380" cy="206" r="151" fill="#C47623" opacity=".15"/><polygon points="163.00,111.00 166.11,117.89 173.00,121.00 166.11,124.11 163.00,131.00 159.89,124.11 153.00,121.00 159.89,117.89" fill="#D2B48C"/><polygon points="584.00,84.00 586.49,89.51 592.00,92.00 586.49,94.49 584.00,100.00 581.51,94.49 576.00,92.00 581.51,89.51" fill="#D2B48C"/><polygon points="548.00,296.00 549.87,300.13 554.00,302.00 549.87,303.87 548.00,308.00 546.13,303.87 542.00,302.00 546.13,300.13" fill="#D2B48C"/><g transform="translate(376 211) rotate(0) scale(1.5)"><rect x="-12" y="-77" width="24" height="29" fill="#C47623" transform="rotate(0)"/><rect x="-12" y="-77" width="24" height="29" fill="#C47623" transform="rotate(30)"/><rect x="-12" y="-77" width="24" height="29" fill="#C47623" transform="rotate(60)"/><rect x="-12" y="-77" width="24" height="29" fill="#C47623" transform="rotate(90)"/><rect x="-12" y="-77" width="24" height="29" fill="#C47623" transform="rotate(120)"/><rect x="-12" y="-77" width="24" height="29" fill="#C47623" transform="rotate(150)"/><rect x="-12" y="-77" width="24" height="29" fill="#C47623" transform="rotate(180)"/><rect x="-12" y="-77" width="24" height="29" fill="#C47623" transform="rotate(210)"/><rect x="-12" y="-77" width="24" height="29" fill="#C47623" transform="rotate(240)"/><rect x="-12" y="-77" width="24" height="29" fill="#C47623" transform="rotate(270)"/><rect x="-12" y="-77" width="24" height="29" fill="#C47623" transform="rotate(300)"/><rect x="-12" y="-77" width="24" height="29" fill="#C47623" transform="rotate(330)"/><circle cx="0" cy="0" r="66" fill="#C47623" /><circle cx="0" cy="0" r="33" fill="#FFF6E4" /><circle cx="0" cy="0" r="20" fill="#352323" /></g><path d="M230 287L281 128 304 131 309 170 258 298Z" fill="#D2B48C"/><path d="M500 118L527 122 522 275 490 290 489 264Z" fill="#FFF6E4"/><g transform="translate(542 316) rotate(0) scale(0.36)"><rect x="-12" y="-77" width="24" height="29" fill="#00594E" transform="rotate(0)"/><rect x="-12" y="-77" width="24" height="29" fill="#00594E" transform="rotate(30)"/><rect x="-12" y="-77" width="24" height="29" fill="#00594E" transform="rotate(60)"/><rect x="-12" y="-77" width="24" height="29" fill="#00594E" transform="rotate(90)"/><rect x="-12" y="-77" width="24" height="29" fill="#00594E" transform="rotate(120)"/><rect x="-12" y="-77" width="24" height="29" fill="#00594E" transform="rotate(150)"/><rect x="-12" y="-77" width="24" height="29" fill="#00594E" transform="rotate(180)"/><rect x="-12" y="-77" width="24" height="29" fill="#00594E" transform="rotate(210)"/><rect x="-12" y="-77" width="24" height="29" fill="#00594E" transform="rotate(240)"/><rect x="-12" y="-77" width="24" height="29" fill="#00594E" transform="rotate(270)"/><rect x="-12" y="-77" width="24" height="29" fill="#00594E" transform="rotate(300)"/><rect x="-12" y="-77" width="24" height="29" fill="#00594E" transform="rotate(330)"/><circle cx="0" cy="0" r="66" fill="#00594E" /><circle cx="0" cy="0" r="33" fill="#FFF6E4" /><circle cx="0" cy="0" r="20" fill="#352323" /></g><path d="M485.2 211L532 211" fill="none" stroke="#D2B48C" stroke-width="2" stroke-linecap="round" /><path d="M476.8876449502325 252.7890308142678L520.1252070717608 270.698615448954" fill="none" stroke="#D2B48C" stroke-width="2" stroke-linecap="round" /><path d="M453.216060505571 288.21606050557097L486.3086578651014 321.3086578651014" fill="none" stroke="#D2B48C" stroke-width="2" stroke-linecap="round" /><path d="M417.7890308142678 311.8876449502325L435.698615448954 355.12520707176077" fill="none" stroke="#D2B48C" stroke-width="2" stroke-linecap="round" /><path d="M376 320.2L376 367" fill="none" stroke="#D2B48C" stroke-width="2" stroke-linecap="round" /><path d="M334.2109691857322 311.8876449502325L316.301384551046 355.12520707176077" fill="none" stroke="#D2B48C" stroke-width="2" stroke-linecap="round" /><path d="M298.78393949442903 288.216060505571L265.6913421348986 321.3086578651014" fill="none" stroke="#D2B48C" stroke-width="2" stroke-linecap="round" /><path d="M275.1123550497675 252.78903081426782L231.87479292823926 270.698615448954" fill="none" stroke="#D2B48C" stroke-width="2" stroke-linecap="round" /><path d="M266.8 211L220 211.00000000000003" fill="none" stroke="#D2B48C" stroke-width="2" stroke-linecap="round" /><path d="M275.1123550497675 169.2109691857322L231.87479292823926 151.301384551046" fill="none" stroke="#D2B48C" stroke-width="2" stroke-linecap="round" /><path d="M298.783939494429 133.78393949442903L265.69134213489855 100.69134213489859" fill="none" stroke="#D2B48C" stroke-width="2" stroke-linecap="round" /><path d="M334.21096918573215 110.11235504976753L316.3013845510459 66.87479292823932" fill="none" stroke="#D2B48C" stroke-width="2" stroke-linecap="round" /><path d="M376 101.80000000000001L375.99999999999994 55" fill="none" stroke="#D2B48C" stroke-width="2" stroke-linecap="round" /><path d="M417.78903081426785 110.1123550497675L435.69861544895406 66.87479292823929" fill="none" stroke="#D2B48C" stroke-width="2" stroke-linecap="round" /><path d="M453.21606050557097 133.78393949442898L486.3086578651014 100.69134213489856" fill="none" stroke="#D2B48C" stroke-width="2" stroke-linecap="round" /><path d="M476.88764495023247 169.21096918573213L520.1252070717607 151.30138455104589" fill="none" stroke="#D2B48C" stroke-width="2" stroke-linecap="round" /><circle cx="666" cy="72" r="33" fill="none" stroke="#FFF6E4" stroke-width="1.5" stroke-dasharray="3 4" opacity=".32"/><path d="M612 87L716 87" fill="none" stroke="#FFF6E4" stroke-width="1" stroke-linecap="round" opacity=".2"/><path d="M617 95L721 95" fill="none" stroke="#FFF6E4" stroke-width="1" stroke-linecap="round" opacity=".2"/></svg>
